# xmcd
#
# Track frame offsets:
#	150
#	16600
#	38447
#	59065
#	81540
#	102610
#	126522
#	141715
#	159507
#	181117
#
# Disc length: 2736 seconds
#
# Revision: 0
# Processed by: cddbd v1.5.1PL0 Copyright (c) Steve Scherf et al.
# Submitted via: EasyCDDAExtractor 8.2.1.1
#
DISCID=8c0aae0a
DTITLE=Various Artist - HAYAT DEVAM EDIYOR
DYEAR=1993
DGENRE=Alternative
TTITLE0=ORHAN GENCEBAY - AYRILIKTAN VAZGECELIM (DUET WITH SIBEL CAN)
TTITLE1=ORHAN GENCEBAY - KURBANIM 
TTITLE2=ORHAN GENCEBAY - HAYAT DEVAM EDIYOR (DUET WITH SIBEL CAN)
TTITLE3=SIBEL CAN - KANDIRMA
TTITLE4=ORHAN GENCEBAY - AHU GOZLUM 
TTITLE5=ORHAN GENCEBAY - SEVMENIN ZAMANI YOK (DUET WITH SIBEL CAN)
TTITLE6=SIBEL CAN - HAYATIM DEGISTI
TTITLE7=ORHAN GENCEBAY - SEVEREK AYRILALIM (DUET WITH SIBEL CAN)
TTITLE8=ORHAN GENCEBAY - KUL BIRAKMADIN 
TTITLE9=SIBEL CAN - UNUTTU SENI
EXTD=
EXTT0=
EXTT1=
EXTT2=
EXTT3=
EXTT4=
EXTT5=
EXTT6=
EXTT7=
EXTT8=
EXTT9=
PLAYORDER=
